HIERARCHY
ROOT pelvis
{
	OFFSET 0.000000 0.000000 0.000000
	CHANNELS 6 Xposition Yposition Zposition Zrotation Xrotation Yrotation
	JOINT lfemur
	{
		OFFSET 11.446000 0.000000 0.000000
		CHANNELS 3 Zrotation Xrotation Yrotation
		JOINT ltibia
		{
			OFFSET 0.000000 -42.030400 0.000000
			CHANNELS 3 Zrotation Xrotation Yrotation
			JOINT lfoot
			{
				OFFSET 0.000000 -39.930200 0.000000
				CHANNELS 3 Zrotation Xrotation Yrotation
				JOINT ltoes
				{
					OFFSET 0.000000 0.000000 11.775800
					CHANNELS 3 Zrotation Xrotation Yrotation
					End Site
					{
					    OFFSET 0.000000 0.000000 5.000000
					}
				}
			}
		}
	}
	JOINT rfemur
	{
		OFFSET -11.446000 0.000000 0.000000
		CHANNELS 3 Zrotation Xrotation Yrotation
		JOINT rtibia
		{
			OFFSET 0.000000 -42.030400 0.000000
			CHANNELS 3 Zrotation Xrotation Yrotation
			JOINT rfoot
			{
				OFFSET 0.000000 -39.930200 0.000000
				CHANNELS 3 Zrotation Xrotation Yrotation
				JOINT rtoes
				{
					OFFSET 0.000000 0.000000 11.775800
					CHANNELS 3 Zrotation Xrotation Yrotation
					End Site
					{
					    OFFSET 0.000000 0.000000 5.000000
					}
				}
			}
		}
	}
	JOINT thorax
	{
		OFFSET 0.000000 11.255600 -5.000000
		CHANNELS 3 Zrotation Xrotation Yrotation
		JOINT head
		{
			OFFSET 0.000000 43.799300 0.000000
			CHANNELS 3 Zrotation Xrotation Yrotation
			End Site
			{
			    OFFSET 0.000000 5.000000 0.000000
			}
		}
		JOINT lclavicle
		{
			OFFSET 0.000000 39.863000 0.000000
			CHANNELS 3 Zrotation Xrotation Yrotation
			JOINT lhumerus
			{
				OFFSET 17.380600 4.958300 0.000000
				CHANNELS 3 Zrotation Xrotation Yrotation
				JOINT lradius
				{
					OFFSET 0.000000 -27.561300 0.000000
					CHANNELS 3 Zrotation Xrotation Yrotation
					JOINT lhand
					{
						OFFSET 0.000000 -26.933000 0.000000
						CHANNELS 3 Zrotation Xrotation Yrotation
						End Site
						{
						    OFFSET 0.000000 -5.000000 0.000000
						}
					}
				}
			}
		}
		JOINT rclavicle
		{
			OFFSET 0.000000 39.863000 0.000000
			CHANNELS 3 Zrotation Xrotation Yrotation
			JOINT rhumerus
			{
				OFFSET -17.380600 4.958300 0.000000
				CHANNELS 3 Zrotation Xrotation Yrotation
				JOINT rradius
				{
					OFFSET 0.000000 -27.561300 0.000000
					CHANNELS 3 Zrotation Xrotation Yrotation
					JOINT rhand
					{
						OFFSET 0.000000 -26.933000 0.000000
						CHANNELS 3 Zrotation Xrotation Yrotation
						End Site
						{
						    OFFSET 0.000000 -5.000000 0.000000
						}
					}
				}
			}
		}
	}
}
MOTION
Frames:	16
Frame Time:	0.0333333
75.350500 87.025000 4.072100 -2.957363 -2.380187 -92.436036 -6.262325 -3.064543 -3.027679 -0.000000 19.616905 -0.000000 0.000000 1.025935 10.032931 -0.000000 -1.362768 0.000000 -1.856956 -3.868636 -2.853612 0.000000 22.039353 -0.000000 0.000000 -0.327229 -3.355924 -0.000000 -29.547186 0.000000 -5.112174 3.413208 0.795671 17.033828 25.309453 -1.015428 3.087322 0.000000 3.925057 85.512928 -4.322144 73.473218 -0.000000 -11.222339 -61.034277 10.317867 2.886883 0.000000 -7.622295 0.000000 -0.713099 -77.186063 5.380349 -66.782747 0.000001 -20.960517 46.457474 -11.025394 0.346382 0.000000 
75.363600 87.032700 4.004200 -3.069937 -2.414111 -92.454936 -6.251235 -2.902999 -2.991161 -0.000000 19.491697 0.000000 -0.000000 1.100685 10.044677 -0.000000 -1.363679 -0.000000 -1.877591 -3.720516 -3.011238 -0.000000 21.948389 -0.000000 0.000000 -0.344201 -3.185199 -0.000000 -29.547223 0.000000 -5.167189 3.590373 0.678810 17.102337 25.326737 -1.110421 3.022751 -0.000000 4.196417 85.449725 -4.436733 73.509381 0.000000 -11.174144 -60.647580 10.252042 2.974104 -0.000000 -7.531450 0.000000 -0.594087 -77.297295 5.336122 -66.556398 -0.000001 -20.829235 46.187852 -11.014513 0.342516 0.000000 
75.360300 87.066200 3.931800 -3.059658 -2.334030 -92.320675 -6.124973 -2.822984 -3.110414 -0.000000 19.307788 -0.000000 -0.000000 1.174861 10.052383 0.000000 -1.361767 -0.000000 -1.716059 -3.479068 -2.976320 0.000000 21.498109 -0.000000 0.000000 -0.190086 -3.300557 0.000000 -29.547002 -0.000000 -5.098103 3.601890 0.467266 17.154752 25.525229 -1.086532 2.974901 0.000000 4.211352 85.374931 -4.365877 73.702589 -0.000000 -10.835462 -61.442743 10.596065 2.935656 0.000000 -7.428824 0.000000 -0.390505 -77.297347 5.470201 -66.431623 -0.000000 -20.839086 46.182964 -11.352486 0.457363 0.000000 
75.360000 87.108300 3.847600 -3.003998 -2.232732 -92.183125 -5.963315 -2.818712 -3.164277 -0.000000 19.171865 -0.000000 0.000000 1.271631 10.011896 -0.000000 -1.362838 -0.000000 -1.535985 -3.264682 -3.032100 -0.000000 21.032824 -0.000000 -0.000000 -0.046804 -3.387429 0.000000 -29.545871 -0.000000 -5.024112 3.483962 0.477943 17.331953 25.792400 -1.009972 3.115088 0.000000 4.153383 84.996061 -4.466657 73.889260 0.000000 -10.941448 -60.948358 9.810204 2.897493 -0.000000 -7.286022 -0.000000 -0.589567 -77.372058 5.282806 -66.641225 0.000001 -20.750530 46.415527 -11.222206 0.413707 0.000000 
75.369900 87.127000 3.753700 -2.928160 -2.145986 -92.108221 -5.832481 -2.911033 -3.306621 -0.000000 19.220199 -0.000000 0.000000 1.294890 10.086814 -0.000000 -1.365427 -0.000000 -1.350926 -3.178592 -2.951481 -0.000000 20.725836 -0.000000 -0.000000 0.090015 -3.507679 -0.000000 -29.545646 -0.000000 -5.004217 3.336073 0.438890 17.406793 26.113903 -0.760464 3.231934 -0.000000 4.241064 84.744057 -4.595233 73.983213 -0.000001 -11.053075 -60.714373 9.955248 3.054845 -0.000000 -7.033080 -0.000000 -0.593932 -77.596572 5.271968 -66.379679 -0.000001 -20.734787 46.282063 -10.898120 0.302870 -0.000000 
75.379600 87.116900 3.676500 -2.830792 -2.157242 -92.156468 -5.799265 -3.015483 -3.303007 -0.000000 19.238113 0.000000 0.000000 1.238332 10.144313 -0.000000 -1.366408 -0.000000 -1.294725 -3.317718 -2.877433 -0.000000 20.793928 -0.000000 0.000000 0.030811 -3.629820 -0.000000 -29.544703 -0.000000 -5.013129 3.288074 0.494413 17.374773 26.321806 -0.465903 3.147585 0.000000 4.305684 84.795302 -4.607432 73.922898 -0.000000 -11.064086 -60.472043 10.099304 3.093935 -0.000000 -7.055548 0.000000 -0.766706 -77.611226 4.939687 -66.625101 -0.000000 -20.653204 46.501294 -10.745791 0.251846 0.000000 
75.367800 87.108800 3.604300 -2.828909 -2.227846 -92.318584 -5.810309 -2.964797 -3.148457 -0.000000 19.151069 -0.000000 -0.000000 1.284428 10.149699 -0.000000 -1.368792 -0.000000 -1.334260 -3.443993 -2.844606 -0.000000 20.997551 -0.000000 0.000000 -0.036354 -3.420542 -0.000000 -29.544580 -0.000000 -5.032887 3.280747 0.702915 17.186982 26.570123 -0.414194 3.048474 0.000000 4.256280 84.892244 -4.542305 73.990440 0.000001 -10.965875 -60.980633 10.420625 2.940439 -0.000000 -7.295193 -0.000000 -0.774193 -77.343196 4.945941 -66.328478 0.000001 -20.901033 46.237028 -10.690895 0.232672 0.000000 
75.360500 87.102000 3.510500 -2.783464 -2.246354 -92.377019 -5.757126 -2.988217 -3.122512 0.000000 19.135412 -0.000000 -0.000000 1.282627 10.111382 -0.000000 -1.368891 -0.000000 -1.309416 -3.548310 -2.964557 -0.000000 21.108631 -0.000000 0.000000 -0.080561 -3.366387 -0.000000 -29.544799 -0.000000 -5.019029 3.298313 0.808064 16.976734 26.681207 -0.502052 2.964955 -0.000000 4.061759 84.841084 -4.263251 73.984023 0.000001 -11.290537 -60.857488 10.297515 2.778512 -0.000000 -7.393712 0.000000 -0.773014 -77.367168 4.790734 -66.473985 0.000001 -20.757806 46.355553 -11.081999 0.365853 -0.000000 
75.328800 87.134600 3.436600 -2.732609 -2.245350 -92.457870 -5.708981 -2.915901 -3.098607 0.000000 18.941438 0.000000 0.000000 1.371088 10.211961 -0.000000 -1.372135 -0.000000 -1.233899 -3.423335 -2.787875 -0.000000 20.761332 -0.000000 0.000000 0.067465 -3.384391 -0.000000 -29.544508 0.000000 -4.948245 3.351701 0.815985 16.601766 26.643888 -0.542626 2.956836 0.000000 4.347591 84.844796 -4.575967 74.795010 0.000000 -11.070770 -61.412485 10.400556 2.867864 -0.000000 -7.488130 0.000000 -0.637168 -77.359348 4.832651 -66.228046 0.000002 -20.924084 46.391872 -10.852061 0.288152 0.000000 
75.300400 87.174900 3.364100 -2.574446 -2.178976 -92.524562 -5.586475 -2.907200 -3.063263 0.000000 18.637942 -0.000000 0.000000 1.445447 10.259467 -0.000000 -1.368218 -0.000000 -1.105951 -3.344090 -2.797530 -0.000000 20.313835 -0.000000 0.000000 0.225374 -3.329631 0.000000 -29.544129 -0.000000 -4.790810 3.273319 0.864413 16.193349 26.705920 -0.339024 2.900138 -0.000000 4.304555 84.729855 -4.443939 74.864729 -0.000001 -11.047215 -61.690432 10.389132 2.641688 0.000000 -7.536599 0.000000 -0.594110 -77.447183 4.745675 -66.145631 0.000001 -20.976009 46.374131 -11.019309 0.344372 -0.000000 
75.258300 87.217300 3.293800 -2.376340 -2.121171 -92.578273 -5.456469 -2.968471 -2.966911 -0.000000 18.443743 -0.000000 0.000000 1.589170 10.183829 0.000000 -1.373330 -0.000000 -0.969151 -3.303685 -2.665732 -0.000000 19.869977 -0.000000 0.000000 0.443393 -3.397637 -0.000000 -29.544621 -0.000000 -4.650155 3.189191 0.859208 15.879664 26.792378 -0.061044 2.846027 -0.000000 4.501668 84.555745 -4.527213 74.193098 -0.000001 -11.300508 -60.638934 10.327966 2.960018 0.000000 -7.685764 0.000000 -0.766076 -77.360851 4.256977 -66.524619 0.000001 -21.020446 46.718371 -10.813755 0.273851 0.000000 
75.267800 87.233300 3.203300 -2.180722 -2.122676 -92.700595 -5.376663 -3.129015 -2.811655 -0.000000 18.358948 -0.000000 0.000000 1.639914 10.202768 -0.000000 -1.371998 -0.000000 -0.856057 -3.483473 -2.291049 0.000000 19.803115 -0.000000 -0.000000 0.533200 -3.574868 -0.000000 -29.544703 0.000000 -4.608968 3.071146 1.002439 15.631771 26.871515 0.305029 2.806520 0.000000 4.640709 84.441741 -4.629087 73.657959 0.000001 -11.419410 -60.117177 10.370275 2.892489 0.000000 -7.691081 -0.000000 -0.871318 -77.425420 4.063070 -66.266465 0.000000 -20.963370 46.776734 -11.385926 0.467730 0.000000 
75.281400 87.215900 3.108300 -2.125517 -2.167445 -92.734433 -5.339358 -3.259299 -2.710030 -0.000000 18.488621 0.000000 0.000000 1.616887 10.137374 -0.000000 -1.372816 -0.000000 -0.830328 -3.702627 -2.211949 -0.000000 20.122962 -0.000000 0.000000 0.466118 -3.680785 0.000000 -29.544522 -0.000000 -4.659408 3.106726 0.952162 15.436678 26.687868 0.499386 2.655124 0.000000 4.717334 84.556554 -4.551237 73.951626 0.000000 -11.355500 -60.623304 10.824986 2.669151 0.000000 -7.710375 -0.000000 -0.918163 -77.227811 3.863520 -66.194441 -0.000001 -21.329743 46.549179 -11.092276 0.368616 -0.000000 
75.304000 87.164700 3.032300 -2.099428 -2.363567 -92.884253 -5.470759 -3.376112 -2.528722 0.000000 18.648755 -0.000000 -0.000000 1.578427 10.082788 -0.000000 -1.380123 -0.000000 -1.017615 -4.174334 -2.343519 -0.000000 20.905654 -0.000000 0.000000 0.186034 -3.405812 0.000000 -29.544956 -0.000000 -4.818553 3.149815 1.078442 15.256193 26.610077 0.592659 2.725881 -0.000000 4.049304 83.859266 -3.477302 74.035091 -0.000000 -12.017714 -60.589377 12.276934 2.642566 0.000000 -7.473572 0.000000 -0.583324 -77.342302 4.321164 -65.938745 -0.000001 -21.754963 46.738595 -10.908119 0.305498 -0.000000 
75.333700 87.103300 2.923000 -1.999061 -2.609188 -93.208966 -5.582307 -3.508981 -2.044585 0.000000 18.670087 -0.000000 0.000000 1.551674 9.931914 -0.000000 -1.381470 -0.000000 -1.189241 -4.804043 -2.106868 -0.000000 21.797331 -0.000000 -0.000000 -0.210762 -3.349998 0.000000 -29.544980 -0.000000 -5.086983 3.240944 1.141763 14.855397 26.715891 1.242392 2.777253 -0.000000 3.906032 82.891453 -2.548640 73.307452 0.000000 -12.940893 -58.892634 14.692504 3.109229 -0.000000 -7.151562 0.000000 -0.536464 -77.474781 4.065975 -65.369493 -0.000000 -21.836607 46.691793 -11.501348 0.506316 0.000000 
75.352900 87.083600 2.823200 -1.835635 -2.756490 -93.635394 -5.619393 -3.593038 -1.606135 -0.000000 18.504737 -0.000000 0.000000 1.634410 9.910128 -0.000000 -1.379689 -0.000000 -1.298150 -5.257304 -2.065469 -0.000000 22.201292 0.000000 -0.000000 -0.355850 -3.020523 -0.000000 -29.544546 -0.000000 -5.186721 3.205320 1.082917 14.449149 26.965598 1.842823 2.535458 0.000000 3.825821 81.721807 -1.720176 74.460187 0.000000 -13.246461 -58.261885 17.138982 3.273239 -0.000000 -6.301080 -0.000000 -0.360604 -77.720589 3.812928 -64.541905 -0.000000 -22.571741 46.363071 -11.403763 0.471799 0.000000 
